<?xml version="1.0" encoding="UTF-8" standalone="no"?>
<!-- Generator: Adobe Illustrator 19.2.1, SVG Export Plug-In . SVG Version: 6.00 Build 0)  -->

<svg
   xmlns:dc="http://purl.org/dc/elements/1.1/"
   xmlns:cc="http://creativecommons.org/ns#"
   xmlns:rdf="http://www.w3.org/1999/02/22-rdf-syntax-ns#"
   xmlns:svg="http://www.w3.org/2000/svg"
   xmlns="http://www.w3.org/2000/svg"
   xmlns:sodipodi="http://sodipodi.sourceforge.net/DTD/sodipodi-0.dtd"
   xmlns:inkscape="http://www.inkscape.org/namespaces/inkscape"
   version="1.1"
   id="Layer_1"
   x="0px"
   y="0px"
   viewBox="0 0 415.79999 58.799999"
   xml:space="preserve"
   inkscape:version="0.91 r13725"
   sodipodi:docname="stockeleven_logo.svg"
   width="415.79999"
   height="58.799999"><metadata
     id="metadata45"><rdf:RDF><cc:Work
         rdf:about=""><dc:format>image/svg+xml</dc:format><dc:type
           rdf:resource="http://purl.org/dc/dcmitype/StillImage" /><dc:title></dc:title></cc:Work></rdf:RDF></metadata><defs
     id="defs43" /><sodipodi:namedview
     pagecolor="#ffffff"
     bordercolor="#666666"
     borderopacity="1"
     objecttolerance="10"
     gridtolerance="10"
     guidetolerance="10"
     inkscape:pageopacity="0"
     inkscape:pageshadow="2"
     inkscape:window-width="1366"
     inkscape:window-height="705"
     id="namedview41"
     showgrid="false"
     inkscape:zoom="1.3037281"
     inkscape:cx="57.103601"
     inkscape:cy="-42.034869"
     inkscape:window-x="-8"
     inkscape:window-y="-8"
     inkscape:window-maximized="1"
     inkscape:current-layer="g5"
     fit-margin-top="5"
     fit-margin-left="5"
     fit-margin-right="5"
     fit-margin-bottom="5" /><style
     type="text/css"
     id="style3">
	.st0{fill:#B8B7B5;}
	.st1{fill:#EBD2A1;}
</style><g
     id="g5"
     transform="translate(-226.86375,72.648105)"><path
       class="st0"
       d="m 233.26375,-30.948105 c 1.6,1 4.4,2.1 7.1,2.1 3.9,0 5.8,-1.9 5.8,-4.3 0,-2.5 -1.5,-3.9 -5.5,-5.3 -5.3,-1.8 -7.9,-4.7 -7.9,-8.1 0,-4.6 3.9,-8.4 10.3,-8.4 3,0 5.7,0.8 7.3,1.8 l -1.4,3.8 c -1.2,-0.7 -3.3,-1.7 -6.1,-1.7 -3.2,0 -5,1.8 -5,3.9 0,2.4 1.8,3.4 5.7,4.9 5.2,1.9 7.8,4.4 7.8,8.7 0,5 -4.1,8.6 -11.1,8.6 -3.3,0 -6.3,-0.8 -8.4,-2 l 1.4,-4 z"
       id="path7"
       inkscape:connector-curvature="0"
       style="fill:#b8b7b5" /><path
       class="st0"
       d="m 264.86375,-62.448105 0,8.2 7.7,0 0,4 -7.7,0 0,15.5 c 0,3.6 1,5.6 4.1,5.6 1.4,0 2.5,-0.2 3.1,-0.4 l 0.2,3.9 c -1,0.4 -2.7,0.7 -4.8,0.7 -2.5,0 -4.5,-0.8 -5.8,-2.2 -1.5,-1.5 -2.1,-4.1 -2.1,-7.5 l 0,-15.6 -4.6,0 0,-4 4.6,0 0,-6.9 5.3,-1.3 z"
       id="path9"
       inkscape:connector-curvature="0"
       style="fill:#b8b7b5" /><path
       class="st0"
       d="m 305.16375,-40.148105 c 0,10.6 -7.6,15.2 -14.8,15.2 -8.1,0 -14.3,-5.7 -14.3,-14.8 0,-9.6 6.5,-15.2 14.8,-15.2 8.6,0 14.3,6 14.3,14.8 z m -23.6,0.3 c 0,6.3 3.7,11 9,11 5.2,0 9,-4.7 9,-11.1 0,-4.9 -2.5,-11 -8.9,-11 -6.3,0 -9.1,5.6 -9.1,11.1 z"
       id="path11"
       inkscape:connector-curvature="0"
       style="fill:#b8b7b5" /><path
       class="st0"
       d="m 333.26375,-26.648105 c -1.4,0.7 -4.5,1.7 -8.5,1.7 -9,0 -14.8,-5.9 -14.8,-14.6 0,-8.8 6.3,-15.2 16,-15.2 3.2,0 6,0.8 7.5,1.5 l -1.2,4 c -1.3,-0.7 -3.3,-1.4 -6.3,-1.4 -6.8,0 -10.5,4.9 -10.5,10.8 0,6.6 4.4,10.7 10.3,10.7 3.1,0 5.1,-0.8 6.6,-1.4 l 0.9,3.9 z"
       id="path13"
       inkscape:connector-curvature="0"
       style="fill:#b8b7b5" /><path
       class="st0"
       d="m 344.86375,-41.048105 0.1,0 c 0.7,-1 1.8,-2.3 2.6,-3.3 l 8.7,-9.9 6.5,0 -11.5,11.8 13.1,16.9 -6.6,0 -10.3,-13.7 -2.8,3 0,10.8 -5.3,0 0,-42.2 5.3,0 0,26.6 z"
       id="path15"
       inkscape:connector-curvature="0"
       style="fill:#b8b7b5" /><path
       class="st1"
       d="m 368.96375,-18.948105 0,-47.2 11.2,0 0,3.3 -7.1,0 0,40.7 7.1,0 0,3.3 -11.2,0 z"
       id="path17"
       inkscape:connector-curvature="0"
       style="fill:#337ab7;fill-opacity:1" /><path
       class="st1"
       d="m 413.96375,-39.648105 -28.5,14.1 0,-4.1 24.2,-11.6 0,-0.1 -24.2,-11.6 0,-4.1 28.5,14.1 0,3.3 z"
       id="path19"
       inkscape:connector-curvature="0"
       style="fill:#337ab7;fill-opacity:1" /><path
       class="st1"
       d="m 422.06375,-42.948105 28.5,-14.2 0,4.1 -24,11.6 0,0.2 24,11.6 0,4.1 -28.5,-14.2 0,-3.2 z"
       id="path21"
       inkscape:connector-curvature="0"
       style="fill:#337ab7;fill-opacity:1" /><path
       class="st1"
       d="m 467.06375,-66.248105 0,47.3 -11.2,0 0,-3.3 7.1,0 0,-40.7 -7.1,0 0,-3.3 11.2,0 z"
       id="path23"
       inkscape:connector-curvature="0"
       style="fill:#337ab7;fill-opacity:1" /><path
       class="st0"
       d="m 479.56375,-38.948105 c 0.1,7.1 4.8,10 10.2,10 3.9,0 6.2,-0.7 8.2,-1.5 l 0.9,3.7 c -1.9,0.8 -5.2,1.8 -9.9,1.8 -9.2,0 -14.6,-5.8 -14.6,-14.5 0,-8.7 5.3,-15.5 14,-15.5 9.7,0 12.3,8.2 12.3,13.5 0,1.1 -0.1,1.9 -0.2,2.4 l -20.9,0 z m 15.8,-3.7 c 0.1,-3.3 -1.4,-8.5 -7.5,-8.5 -5.5,0 -7.9,4.9 -8.3,8.5 l 15.8,0 z"
       id="path25"
       inkscape:connector-curvature="0"
       style="fill:#b8b7b5" /><path
       class="st0"
       d="m 507.36375,-67.648105 5.4,0 0,42.1 -5.4,0 0,-42.1 z"
       id="path27"
       inkscape:connector-curvature="0"
       style="fill:#b8b7b5" /><path
       class="st0"
       d="m 524.86375,-38.948105 c 0.1,7.1 4.8,10 10.2,10 3.9,0 6.2,-0.7 8.2,-1.5 l 0.9,3.7 c -1.9,0.8 -5.2,1.8 -9.9,1.8 -9.2,0 -14.6,-5.8 -14.6,-14.5 0,-8.7 5.3,-15.5 14,-15.5 9.7,0 12.3,8.2 12.3,13.5 0,1.1 -0.1,1.9 -0.2,2.4 l -20.9,0 z m 15.8,-3.7 c 0.1,-3.3 -1.4,-8.5 -7.5,-8.5 -5.5,0 -7.9,4.9 -8.3,8.5 l 15.8,0 z"
       id="path29"
       inkscape:connector-curvature="0"
       style="fill:#b8b7b5" /><path
       class="st0"
       d="m 554.66375,-54.248105 5.8,16.1 c 1,2.6 1.8,5 2.4,7.3 l 0.2,0 c 0.7,-2.4 1.5,-4.7 2.5,-7.3 l 5.8,-16.1 5.7,0 -11.7,28.7 -5.2,0 -11.2,-28.7 5.7,0 z"
       id="path31"
       inkscape:connector-curvature="0"
       style="fill:#b8b7b5" /><path
       class="st0"
       d="m 584.56375,-38.948105 c 0.1,7.1 4.8,10 10.2,10 3.9,0 6.2,-0.7 8.2,-1.5 l 0.9,3.7 c -1.9,0.8 -5.2,1.8 -9.9,1.8 -9.2,0 -14.6,-5.8 -14.6,-14.5 0,-8.7 5.3,-15.5 14,-15.5 9.7,0 12.3,8.2 12.3,13.5 0,1.1 -0.1,1.9 -0.2,2.4 l -20.9,0 z m 15.9,-3.7 c 0.1,-3.3 -1.4,-8.5 -7.5,-8.5 -5.5,0 -7.9,4.9 -8.3,8.5 l 15.8,0 z"
       id="path33"
       inkscape:connector-curvature="0"
       style="fill:#b8b7b5" /><path
       class="st0"
       d="m 612.36375,-46.448105 c 0,-3 -0.1,-5.4 -0.2,-7.8 l 4.8,0 0.3,4.7 0.1,0 c 1.5,-2.7 4.9,-5.4 9.8,-5.4 4.1,0 10.5,2.4 10.5,12.2 l 0,17.1 -5.4,0 0,-16.5 c 0,-4.6 -1.8,-8.5 -6.9,-8.5 -3.6,0 -6.3,2.4 -7.3,5.3 -0.2,0.7 -0.4,1.5 -0.4,2.4 l 0,17.2 -5.4,0 0,-20.7 z"
       id="path35"
       inkscape:connector-curvature="0"
       style="fill:#b8b7b5" /></g></svg>