<?xml version="1.0" encoding="UTF-8" standalone="no"?>
<svg
   xmlns:dc="http://purl.org/dc/elements/1.1/"
   xmlns:cc="http://creativecommons.org/ns#"
   xmlns:rdf="http://www.w3.org/1999/02/22-rdf-syntax-ns#"
   xmlns:svg="http://www.w3.org/2000/svg"
   xmlns="http://www.w3.org/2000/svg"
   version="1.1"
   id="svg3343"
   viewBox="0 0 744.09448819 1052.3622047"
   height="297mm"
   width="210mm">
  <defs
     id="defs3345">
    <filter
       id="filter3859"
       style="color-interpolation-filters:sRGB">
      <feColorMatrix
         id="feColorMatrix3861"
         result="fbSourceGraphic"
         type="luminanceToAlpha" />
      <feFlood
         id="feFlood3863"
         flood-opacity="1"
         result="result1"
         flood-color="rgb(134,39,24)" />
      <feComposite
         id="feComposite3865"
         result="result2"
         in2="fbSourceGraphic"
         operator="out" />
      <feComposite
         id="feComposite3867"
         in2="SourceGraphic"
         operator="in" />
    </filter>
  </defs>
  <metadata
     id="metadata3348">
    <rdf:RDF>
      <cc:Work
         rdf:about="">
        <dc:format>image/svg+xml</dc:format>
        <dc:type
           rdf:resource="http://purl.org/dc/dcmitype/StillImage" />
        <dc:title></dc:title>
      </cc:Work>
    </rdf:RDF>
  </metadata>
  <g
     id="layer1">
    <path
       transform="matrix(0.84593572,0,0,1.0602538,74.247625,29.29931)"
       style="fill:#323036;filter:url(#filter3859);fill-opacity:0.01754384"
       d="m 27.667,76.346 c -2.0201,-0.5589 -5.6003,-3.8364 -6.8898,-6.3072 -1.4644,-2.806 -1.5745,-6.9144 -0.24136,-9.0023 0.85855,-1.3446 3.1011,-2.5831 4.6687,-2.5784 1.9748,0.0059 4.2101,1.0301 6.3788,2.9226 7.6197,6.6496 4.8116,17.38 -3.9164,14.965 z m 24.379,-0.38969 c -4.7593,-2.7707 -3.3928,-11.861 2.4193,-16.093 3.37,-2.4543 7.2315,-2.1228 9.4775,0.81373 1.3284,1.7368 1.2742,7.2771 -0.09552,9.7544 -2.9338,5.3063 -8.0571,7.705 -11.801,5.5253 z m 659.72,-0.72 c -2.6296,-1.2803 -3.3075,-2.6168 -3.2941,-6.4939 0.0131,-3.7403 0.74719,-5.6112 3.2849,-8.371 2.2977,-2.4989 6.7654,-3.9345 8.6667,-2.785 0.51782,0.31307 0.50127,0.63004 -0.10916,2.0867 -0.39586,0.94467 -0.71972,2.201 -0.71972,2.7917 0,1.0303 0.0891,1.0682 2.1835,0.92967 l 2.1835,-0.14447 -2.6e-4,1.9139 c 0,4.0053 -3.9371,9.2143 -7.7981,10.319 -2.2278,0.63733 -2.6283,0.61489 -4.3973,-0.2464 z m -31.52,-0.658 c -3.6405,-1.2912 -6.1217,-3.3768 -7.8373,-6.5879 -0.90595,-1.6956 -1.635,-5.3658 -1.0659,-5.3658 0.18357,0 1.3961,0.58039 2.6946,1.2898 2.8516,1.5579 3.6402,1.2335 3.6402,-1.4972 0,-4.7123 0.79478,-5.251 4.6397,-3.1453 3.5459,1.942 6.1437,5.5577 6.5438,9.108 0.52306,4.6415 -3.9437,7.8552 -8.615,6.1984 z m -641.65,-0.541 c -0.84003,-0.18048 -0.88958,-0.36319 -0.55806,-2.0576 1.13,-5.7756 -3.8799,-13.338 -9.953,-15.024 -2.2653,-0.62883 -3.1251,-0.61945 -5.982,0.06523 -1.7767,0.42578 -1.3992,-0.59236 0.49487,-1.335 2.087,-0.81826 4.3076,-2.823 5.4289,-4.9013 0.70495,-1.3066 0.84716,-2.2425 0.72587,-4.7773 -0.14496,-3.0295 -0.10647,-3.1762 0.98716,-3.7638 1.0377,-0.55751 1.3648,-0.52231 3.7115,0.39948 2.1631,0.84965 3.3047,1.0109 7.1583,1.0109 4.1412,0 4.851,-0.11739 7.3368,-1.2133 2.7035,-1.192 2.7793,-1.2009 4.3046,-0.5064 1.5212,0.69266 1.5466,0.74476 1.2588,2.5776 -0.46912,2.9871 0.65856,5.968 3.056,8.0781 1.0968,0.9654 2.573,1.9479 3.2803,2.1833 1.5678,0.52188 1.759,1.568 0.23572,1.29 -0.57765,-0.10544 -2.1754,0.1206 -3.5505,0.50232 -5.7356,1.5921 -10.399,8.9177 -9.5301,14.971 0.23603,1.6443 0.16661,1.8303 -0.77372,2.0738 -1.4645,0.37921 -6.5338,0.66298 -7.6313,0.42718 z m 658.29,-1.0799 c -1.561,-0.19982 -3.499,-0.68328 -4.3067,-1.0743 -1.3776,-0.66702 -1.4743,-0.85403 -1.5633,-3.0205 -0.19125,-4.6578 -4.2091,-10.144 -8.7295,-11.919 -1.7908,-0.70326 -1.9901,-0.91832 -1.9915,-2.1496 0,-1.3828 0.12082,-1.4862 2.3018,-1.9431 1.717,-0.35971 4.5409,-2.9362 5.1501,-4.6988 0.29491,-0.85331 0.41634,-2.5406 0.28351,-3.9396 -0.19802,-2.0851 -0.11383,-2.5076 0.56926,-2.8567 0.63772,-0.32588 0.99005,-0.181 1.7227,0.70832 2.2554,2.7378 7.496,4.6331 11.318,4.0928 3.0758,-0.43481 5.9898,-1.8026 7.7069,-3.6173 l 1.5518,-1.6402 1.5334,0.9049 c 1.5249,0.89992 1.5317,0.91736 1.2375,3.1662 -0.21815,1.6674 -0.10261,2.7445 0.43996,4.1012 0.80029,2.0009 3.114,4.2154 4.8353,4.6279 1.8822,0.45106 1.3148,1.4201 -0.83142,1.4201 -6.223,0 -12.327,7.301 -11.987,14.337 0.1237,2.5567 0.0432,2.9065 -0.72995,3.1715 -1.5794,0.54144 -5.6284,0.69804 -8.5102,0.32915 z m -495.24,-2.422 c -7.1052,-0.80691 -11.743,-2.9399 -16.784,-7.7194 -2.8578,-2.7096 -3.8907,-4.0504 -5.3042,-6.8854 -2.313,-4.6389 -2.9272,-7.2451 -2.8931,-12.276 0.053,-7.8201 2.6326,-13.843 8.2314,-19.218 5.9086,-5.6726 11.759,-7.8348 21.199,-7.8348 6.3144,0 9.446,0.63806 14.409,2.9359 4.7496,2.1989 9.7644,7.0995 12.139,11.863 2.3624,4.7385 2.9297,7.2386 2.8754,12.671 -0.0375,3.747 -0.25734,5.2066 -1.2013,7.9762 -2.1635,6.3475 -7.5056,12.559 -13.366,15.542 -4.826,2.4561 -12.845,3.6798 -19.306,2.9461 z m 9.0516,-8.1403 c 7.7293,-1.9213 13.385,-7.2696 15.216,-14.389 0.87864,-3.4159 0.88669,-5.3732 0.0352,-8.5372 -2.2574,-8.3875 -9.0796,-14.049 -18.107,-15.027 -7.4505,-0.80694 -16.334,3.8295 -19.736,10.301 -1.4276,2.7155 -2.5332,6.6054 -2.5332,8.9123 0,4.5276 2.5199,10.058 6.1588,13.517 5.1182,4.8647 12.373,6.8629 18.966,5.224 z m -9.0645,-7.6406 c -4.7441,-1.8298 -7.7036,-5.5694 -8.0798,-10.209 -0.6922,-8.5376 8.4713,-15.039 16.891,-11.984 3.0409,1.1033 5.3019,2.9427 6.8078,5.5384 1.1248,1.9388 1.2877,2.6415 1.2877,5.5551 0,2.9148 -0.16268,3.6159 -1.2898,5.5589 -2.2895,3.9466 -5.6954,5.9537 -10.5,6.1873 -2.2761,0.11069 -3.5827,-0.05431 -5.1172,-0.64618 z m -101.05,14.55 c -2.9611,-0.74129 -7.2719,-2.5822 -9.076,-3.8759 -0.8043,-0.57676 -0.74202,-0.76747 1.6791,-5.1412 1.3829,-2.4982 2.571,-4.5986 2.6403,-4.6674 0.06924,-0.06888 1.2676,0.6384 2.6629,1.5717 2.6401,1.7659 7.1419,3.35 9.5092,3.3459 5.5821,-0.0095 9.4522,-4.1129 7.529,-7.9829 -1.0324,-2.0774 -3.3196,-3.2804 -10.568,-5.5583 -6.0255,-1.8936 -6.6186,-2.1751 -8.7345,-4.1462 -1.4661,-1.3658 -2.448,-2.7053 -2.7727,-3.7824 -2.5787,-8.5544 0.86678,-16.87 8.4783,-20.462 2.6852,-1.2672 3.8108,-1.5504 6.8921,-1.7339 4.2268,-0.2518 8.2899,0.30784 13.04,1.7961 5.3319,1.6706 5.2197,1.398 2.6151,6.3541 -1.2278,2.3362 -2.4094,4.2477 -2.6258,4.2477 -0.2164,0 -1.6392,-0.56272 -3.1617,-1.2505 -5.0945,-2.3013 -10.692,-1.4513 -12.345,1.8746 -0.9286,1.8685 -0.60689,3.4868 0.97378,4.8983 1.5978,1.4268 3.105,2.097 7.7262,3.4354 7.1095,2.059 10.608,4.208 12.688,7.7932 1.2131,2.091 1.2862,2.4853 1.2628,6.8059 -0.0205,3.7913 -0.20262,5.0181 -1.0506,7.0774 -1.895,4.6022 -6.3901,8.1179 -12.3,9.6198 -3.3958,0.86302 -11.193,0.74951 -15.063,-0.2193 z m 163.8,0.06776 c -9.5074,-2.7024 -17.548,-10.435 -19.633,-18.882 -0.8449,-3.4226 -0.8449,-10.25 0,-13.673 0.89559,-3.6278 3.4043,-8.0342 6.2383,-10.957 6.666,-6.875 16.278,-10.075 25.621,-8.5304 2.1614,0.35743 4.7158,0.91038 5.6764,1.2288 l 1.7466,0.57893 0.11974,6.9471 0.11975,6.9471 -1.9533,-1.4237 c -2.6974,-1.966 -5.9346,-2.9499 -9.639,-2.9297 -9.479,0.05176 -15.971,6.7868 -15.413,15.991 0.54764,9.0332 8.2126,14.904 17.901,13.711 2.6073,-0.32104 6.4288,-1.9152 8.0998,-3.3789 l 0.98245,-0.86056 0,6.9354 0,6.9354 -2.9474,0.90934 c -4.1441,1.2786 -13.164,1.5193 -16.92,0.4516 z m -118.11,-20.725 0,-20.232 -1.12,-0.40662 c -0.61602,-0.22364 -3.1704,-0.40662 -5.6764,-0.40662 l -4.5564,0 0,-4.7948 0,-4.7948 17.903,0 17.903,0 0,4.7608 0,4.7608 -5.423,0.13824 c -2.9826,0.07603 -5.5861,0.29446 -5.7856,0.4854 -0.19944,0.19094 -0.41719,9.4313 -0.48389,20.534 l -0.12127,20.187 -6.3193,0 -6.3193,0 0,-20.232 z m 148.9,-5.2014 0,-25.433 6.3314,0 6.3314,0 0,10.354 c 0,5.6947 0.12408,10.472 0.27573,10.617 0.64689,0.61768 2.1769,-1.0276 9.9764,-10.728 l 8.2354,-10.243 7.5672,0 c 4.162,0 7.5672,0.10362 7.5672,0.23026 0,0.12665 -4.5193,5.3702 -10.043,11.652 -5.5236,6.2822 -10.039,11.76 -10.035,12.174 0.004,0.41329 5.0198,6.5677 11.145,13.676 l 11.137,12.925 -7.9226,0.11383 c -5.1465,0.07395 -8.1194,-0.04212 -8.4843,-0.33124 -0.3089,-0.24479 -4.4465,-5.2211 -9.1947,-11.058 -5.6745,-6.9762 -8.9058,-10.613 -9.4289,-10.613 -0.75005,0 -0.79587,0.63622 -0.79587,11.049 l 0,11.049 -6.3314,0 -6.3314,0 0,-25.433 z m 80.343,0 0,-25.433 14.846,0 14.846,0 0,4.769 0,4.769 -8.0946,0.13002 c -6.6156,0.10626 -8.1702,0.24429 -8.5079,0.75542 -0.22731,0.34397 -0.4163,2.5419 -0.41998,4.8843 -0.006,3.7877 0.0868,4.3067 0.8379,4.6905 0.4847,0.24769 3.9268,0.43161 8.078,0.43161 l 7.2334,0 0,4.7948 0,4.7948 -7.2334,0 c -4.1511,0 -7.5933,0.18392 -8.078,0.4316 -0.75504,0.38585 -0.84388,0.90524 -0.8379,4.899 0.003,2.4571 0.19267,4.7488 0.41998,5.0928 0.33778,0.51113 1.8924,0.64916 8.5079,0.75542 l 8.0946,0.13002 0,4.769 0,4.769 -14.846,0 -14.846,0 0,-25.433 z m 40.608,0 0,-25.433 6.0972,0 6.0972,0 0.12507,20.187 c 0.0688,11.103 0.2884,20.343 0.48804,20.534 0.19963,0.19091 4.0803,0.40864 8.6238,0.48383 l 8.2608,0.13672 0,4.7623 0,4.7623 -14.846,0 -14.846,0 0,-25.433 z m 38.425,0 0,-25.433 14.846,0 14.846,0 0,4.769 0,4.769 -8.0426,0.13002 c -4.4235,0.07151 -8.206,0.28592 -8.4055,0.47647 -0.19954,0.19055 -0.42891,2.2717 -0.50974,4.6247 -0.20291,5.9091 -0.58427,5.6607 8.6927,5.6607 l 7.3918,0 0,4.7948 0,4.7948 -7.3918,0 c -9.3086,0 -8.8918,-0.28136 -8.6918,5.8684 0.0803,2.4682 0.30924,4.6436 0.50878,4.8341 0.19951,0.1905 3.982,0.40488 8.4055,0.47639 l 8.0426,0.13002 0,4.769 0,4.769 -14.846,0 -14.846,0 0,-25.433 z m 57.278,24.717 c -0.64724,-1.188 -21.91,-49.625 -21.91,-49.912 0,-0.14255 3.0719,-0.20751 6.8265,-0.14436 l 6.8265,0.11482 6.4096,15.426 c 6.2834,15.122 7.0448,16.53 8.1843,15.132 0.24173,-0.29648 3.2693,-7.338 6.7279,-15.648 l 6.2884,-15.109 6.8561,-0.0052 6.8561,-0.0052 -1.6914,3.8567 c -0.93023,2.1212 -6.0112,13.519 -11.291,25.329 l -9.5995,21.472 -5.0396,0.11728 c -4.4653,0.10391 -5.0856,0.03265 -5.4441,-0.6254 z m 40.967,-24.717 0,-25.433 14.846,0 14.846,0 0,4.7948 0,4.7948 -7.3946,0 c -4.067,0 -7.8986,0.18298 -8.5146,0.40662 -1.1085,0.40243 -1.12,0.45378 -1.12,4.9886 0,4.1033 0.0882,4.627 0.8446,5.0136 0.48468,0.24769 3.9268,0.43161 8.078,0.43161 l 7.2334,0 0,4.7948 0,4.7948 -7.2334,0 c -4.1512,0 -7.5933,0.18392 -8.078,0.4316 -0.75981,0.38827 -0.8446,0.9126 -0.8446,5.222 0,4.7586 0.007,4.7931 1.12,5.197 0.61602,0.22364 4.4476,0.40662 8.5146,0.40662 l 7.3946,0 0,4.7948 0,4.7948 -14.846,0 -14.846,0 0,-25.433 z m 40.172,0 0,-25.433 6.6589,0.005 6.6589,0.005 12.881,15.734 c 7.0846,8.6539 13.176,15.734 13.536,15.734 0.5686,0 0.67003,-2.0753 0.76937,-15.739 l 0.11445,-15.739 6.3261,0 6.3261,0 0,25.433 0,25.433 -6.4878,0 -6.4878,0 -12.179,-14.905 c -13.97,-17.097 -13.93,-17.053 -14.817,-16.35 -0.53663,0.42527 -0.63658,2.9187 -0.63658,15.88 l 0,15.376 -6.3314,0 -6.3314,0 0,-25.433 z m -576.27,10.395 c -3.3862,-0.98476 -5.7375,-5.0387 -4.9228,-8.4874 1.0856,-4.5951 6.4844,-6.9896 10.905,-4.8365 2.4472,1.1921 3.6508,3.0241 3.8677,5.8866 0.31485,4.1562 -2.3072,7.2354 -6.5207,7.6576 -1.0518,0.1054 -2.5498,0.0063 -3.3287,-0.22026 z m 44.279,-0.9005 c -5.1683,-1.3041 -6.9842,-7.7685 -3.3061,-11.769 3.3732,-3.6684 10.166,-2.7972 12.343,1.583 0.82528,1.6606 0.94259,4.912 0.22521,6.242 -1.7712,3.2838 -5.5315,4.8849 -9.2619,3.9436 z m 657.84,-1.57 c -3.9705,-2.3116 -4.0879,-7.4486 -0.22623,-9.897 0.89963,-0.57037 0.95408,-0.52598 1.2275,1.0007 0.15737,0.87867 0.47848,2.3257 0.71362,3.2155 l 0.42752,1.6179 2.8587,-0.27966 c 1.5723,-0.15382 3.0806,-0.31902 3.3518,-0.36713 0.71208,-0.1263 0.36499,1.804 -0.54651,3.0396 -0.97267,1.3184 -3.3723,2.5006 -5.0734,2.4994 -0.72047,-4.17e-4 -1.9503,-0.37374 -2.733,-0.82942 z m -40.27,-0.46381 c -1.875,-0.37827 -4.3734,-2.853 -4.3734,-4.332 0,-1.0093 0.0776,-1.0406 1.8558,-0.74728 1.0207,0.16836 2.5435,0.31129 3.384,0.31763 l 1.5283,0.01151 0.59092,-2.9186 c 0.32504,-1.6052 0.66274,-2.9909 0.75051,-3.0793 0.0878,-0.08839 0.65287,0.1479 1.2558,0.5251 2.8146,1.761 3.2422,6.3435 0.80863,8.6672 -1.4953,1.4278 -3.6157,1.9965 -5.8004,1.5557 z m 17.83,-7.673 c -4.0732,-1.2475 -6.0256,-5.2013 -3.8642,-7.8251 2.9449,-3.5749 11.149,-3.8022 14.704,-0.40739 3.6562,3.4911 0.1502,8.2713 -6.3777,8.6957 -1.4188,0.09222 -3.279,-0.1009 -4.4621,-0.46322 z m 7.2702,-0.81303 c 1.2983,-0.78171 2.9596,-4.1951 2.5948,-5.3313 -0.45163,-1.4066 -1.0687,-1.9819 -2.1258,-1.9819 -1.4583,0 -1.9988,0.81182 -1.9988,3.0019 l 0,2.0013 -1.5025,0 c -1.7154,0 -2.0787,-0.38461 -2.2024,-2.3317 -0.23483,-3.6934 -4.1547,-3.5121 -4.1547,0.19218 0,1.2518 0.32517,1.8565 1.6748,3.115 2.4877,2.3195 5.2773,2.802 7.7146,1.3344 z m -668.17,-1.901 c -3.5045,-1.0954 -7.4155,-4.4351 -8.8961,-7.5968 -1.4474,-3.0907 -1.4474,-7.9668 0,-11.058 1.5835,-3.3813 5.3985,-6.5273 9.2807,-7.6533 7.1466,-2.0727 14.546,0.71078 18.079,6.8014 1.1795,2.0331 1.2829,2.5472 1.2829,6.3806 0,3.8334 -0.10338,4.3475 -1.2829,6.3806 -3.5525,6.1232 -11.345,8.9699 -18.464,6.7449 z m 8.5031,-1.7103 c 5.7931,-2.6778 5.8432,-10.498 0.08517,-13.303 -2.9633,-1.4435 -6.4668,-0.9749 -8.8572,1.1847 -1.7644,1.5941 -2.4717,3.094 -2.4717,5.2416 0,3.3996 1.4377,5.5862 4.5848,6.9731 2.3014,1.0142 4.3195,0.98502 6.659,-0.09636 z m -5.2327,-4.1296 c -0.4163,-0.24194 -1.2822,-0.3854 -1.9243,-0.3188 -0.95211,0.09877 -1.2285,-0.09116 -1.499,-1.03 -0.18239,-0.6331 -0.1458,-1.7937 0.08131,-2.5791 0.42965,-1.4858 2.5998,-3.5663 3.7201,-3.5663 0.41646,0 0.22602,0.3448 -0.53627,0.97089 -0.95115,0.78121 -1.1242,1.1913 -0.8856,2.0989 0.39132,1.4888 2.0676,2.2362 3.5595,1.5871 0.60713,-0.26414 1.2178,-0.76373 1.357,-1.1102 0.42748,-1.0637 -0.25174,-2.7289 -1.2732,-3.1213 -0.78349,-0.30103 -0.8187,-0.37753 -0.18358,-0.39889 2.1825,-0.0734 4.6802,2.412 4.6663,4.6434 -0.01284,2.067 -0.43829,2.685 -1.8804,2.7313 -0.76367,0.02455 -2.0762,0.15448 -2.9168,0.28874 -0.84055,0.13426 -1.8689,0.04615 -2.2852,-0.1958 z m -5.647,-8.993 c 1.3894,-0.92922 1.1596,-3.039 -0.42287,-3.883 -1.0303,-0.54954 -1.2697,-0.53901 -2.2924,0.10084 -1.4753,0.92304 -1.5631,2.8679 -0.17148,3.7986 1.2191,0.81534 1.6468,0.81291 2.8868,-0.01641 z m 15.867,-0.4415 c 0.99304,-0.85812 1.0239,-2.1335 0.07587,-3.1338 -1.4154,-1.4934 -4.5171,-0.49212 -4.5171,1.4582 0,2.04 2.7979,3.0956 4.4413,1.6756 z m 660.44,8.3862 c -1.2736,-1.6714 -4.9414,-3.2068 -8.1959,-3.4308 -3.7584,-0.25868 -7.0653,0.66082 -9.4829,2.6368 l -1.851,1.5128 -0.90132,-1.9456 c -0.49573,-1.0701 -1.0048,-3.0104 -1.1312,-4.3117 -0.21863,-2.2497 -0.19535,-2.3215 0.47294,-1.4599 1.1141,1.4364 3.3706,1.9691 5.2184,1.2319 1.5382,-0.61368 2.9062,-2.4464 2.903,-3.8893 -0.006,-2.5046 -3.4421,-4.7672 -5.8908,-3.8782 -0.66829,0.24261 -1.3099,0.35053 -1.4259,0.23982 -0.11593,-0.11072 0.30409,-1.0403 0.93342,-2.0657 4.5221,-7.368 15.329,-7.585 20.308,-0.40785 1.7578,2.5339 1.789,3.2088 0.11148,2.4097 -1.7091,-0.81413 -3.7635,-0.34552 -5.0914,1.1613 -1.4941,1.6955 -1.4417,3.6872 0.14152,5.3792 1.7216,1.8398 4.2836,1.9155 6.178,0.1824 l 1.3303,-1.217 0,1.4616 c 0,1.9286 -1.1247,5.48 -2.0781,6.5622 l -0.76011,0.86274 -0.78815,-1.0344 z m -31.607,-4.7816 c -1.3111,-0.50426 -2.4519,-2.2714 -2.1169,-3.2792 0.75304,-2.2655 5.0703,-4.6386 8.4388,-4.6386 1.4189,0 1.4813,0.06044 1.1844,1.1466 -0.17239,0.63062 -0.38006,2.3603 -0.46153,3.8437 -0.1169,2.1276 -0.31426,2.7597 -0.93474,2.9935 -1.1047,0.41625 -4.9647,0.37458 -6.11,-0.06596 z m 38.836,0.14803 c -0.88937,-0.18288 -0.9829,-0.44618 -0.98726,-2.7789 -0.004,-1.4173 -0.12833,-3.2906 -0.27928,-4.1629 -0.27208,-1.572 -0.26326,-1.5838 0.98726,-1.3261 2.9006,0.59757 5.0119,1.5933 6.2628,2.9538 1.6986,1.8473 1.781,3.6181 0.21387,4.5986 -1.1311,0.70767 -4.4002,1.0851 -6.1974,0.71556 z m -25.872,-2.7856 c -2.0018,-0.97171 -1.8379,-3.7383 0.26483,-4.4713 1.1623,-0.40518 2.8119,0.36931 3.255,1.5282 0.74531,1.9493 -1.5733,3.888 -3.5198,2.9431 z m 2.9362,-1.8285 c 0.41124,-1.0232 -1.4719,-2.3089 -2.5642,-1.7507 -1.3516,0.6907 -1.5085,1.6729 -0.40372,2.5272 1.0863,0.83993 2.4631,0.47972 2.9679,-0.77651 z m 13.033,1.3132 c -0.72615,-0.6934 -0.89351,-2.1404 -0.34308,-2.9669 0.53249,-0.79969 2.413,-1.304 3.4645,-0.92902 1.1867,0.42315 1.7114,2.1749 1.0603,3.5395 -0.37521,0.78629 -0.81824,1.0116 -1.9892,1.0116 -0.82854,0 -1.8152,-0.29483 -2.1926,-0.65519 z m 2.8357,-0.19336 c 1.1148,-0.56971 1.0975,-2.3284 -0.0287,-2.9039 -1.9468,-0.99483 -3.7608,1.8256 -1.8558,2.8852 0.9587,0.53319 0.87927,0.5324 1.8844,0.01872 z m -687.72,-6.124 c -3.855,-4.466 -0.897,-10.538 5.135,-10.538 0.96874,0 2.3145,0.20012 2.9905,0.44471 1.2692,0.45917 3.1941,1.97 3.1941,2.5069 0,0.16755 -0.84185,0.77572 -1.8708,1.3515 -2.1529,1.2047 -5.5663,4.5475 -6.6084,6.4717 -0.39209,0.724 -0.89003,1.3164 -1.1065,1.3164 -0.2165,0 -0.99677,-0.69867 -1.7339,-1.5526 z m 33.82,-0.694 c -1.943,-2.796 -3.909,-4.494 -6.847,-5.915 l -2.2174,-1.0729 1.2302,-1.2261 c 3.0805,-3.0702 9.0695,-2.3089 11.511,1.4633 1.6056,2.4807 1.0447,6.357 -1.2006,8.2973 -0.8583,0.74169 -0.90654,0.71156 -2.4761,-1.5463 z m 625.5,-0.801 c -2.2861,-0.69557 -5.5091,-3.8912 -6.1148,-6.0629 -0.27832,-0.99774 -0.42883,-1.8878 -0.33443,-1.978 0.0944,-0.09014 1.0522,0.64177 2.1285,1.6265 2.1546,1.9713 4.9282,3.3669 8.3557,4.2045 2.4761,0.60508 2.8896,1.0744 1.8343,2.082 -0.81216,0.77552 -3.545,0.83506 -5.8692,0.12787 z m 32.268,-0.34097 c -0.53354,-0.95192 0,-1.595 1.3397,-1.6087 1.3919,-0.01427 6.1264,-2.5205 7.8244,-4.1418 1.4978,-1.4301 1.7818,-1.5663 1.7818,-0.85407 0,1.2285 -1.1999,3.7808 -2.3132,4.9205 -2.4374,2.4951 -7.6123,3.5046 -8.6327,1.6841 z"
       id="path3371" />
    <path
       d="m 26.792829,89.023093 c -2.0201,-0.5589 -5.6003,-3.8364 -6.8898,-6.3072 -1.4644,-2.806 -1.5745,-6.9144 -0.24136,-9.0023 0.85855,-1.3446 3.1011,-2.5831 4.6687,-2.5784 1.9748,0.006 4.2101,1.0301 6.3788,2.9226 7.6197,6.6496 4.8116,17.38 -3.9164,14.965 z m 24.379,-0.38969 c -4.7593,-2.7707 -3.3928,-11.861 2.4193,-16.093 3.37,-2.4543 7.2315,-2.1228 9.4775,0.81373 1.3284,1.7368 1.2742,7.2771 -0.0955,9.7544 -2.9338,5.3063 -8.0571,7.705 -11.801,5.5253 z m 659.720001,-0.72 c -2.6296,-1.2803 -3.3075,-2.6168 -3.2941,-6.4939 0.0131,-3.7403 0.74719,-5.6112 3.2849,-8.371 2.2977,-2.4989 6.7654,-3.9345 8.6667,-2.785 0.51782,0.31307 0.50127,0.63004 -0.10916,2.0867 -0.39586,0.94467 -0.71972,2.201 -0.71972,2.7917 0,1.0303 0.0891,1.0682 2.1835,0.92967 l 2.1835,-0.14447 -2.6e-4,1.9139 c 0,4.0053 -3.9371,9.2143 -7.7981,10.319 -2.2278,0.63733 -2.6283,0.61489 -4.3973,-0.2464 z m -31.52,-0.658 c -3.6405,-1.2912 -6.1217,-3.3768 -7.8373,-6.5879 -0.90595,-1.6956 -1.635,-5.3658 -1.0659,-5.3658 0.18357,0 1.3961,0.58039 2.6946,1.2898 2.8516,1.5579 3.6402,1.2335 3.6402,-1.4972 0,-4.7123 0.79478,-5.251 4.6397,-3.1453 3.5459,1.942 6.1437,5.5577 6.5438,9.108 0.52306,4.6415 -3.9437,7.8552 -8.615,6.1984 z m -641.650001,-0.541 c -0.84003,-0.18048 -0.88958,-0.36319 -0.55806,-2.0576 1.13,-5.7756 -3.8799,-13.338 -9.953,-15.024 -2.2653,-0.62883 -3.1251,-0.61945 -5.982,0.0652 -1.7767,0.42578 -1.3992,-0.59236 0.49487,-1.335 2.087,-0.81826 4.3076,-2.823 5.4289,-4.9013 0.70495,-1.3066 0.84716,-2.2425 0.72587,-4.7773 -0.14496,-3.0295 -0.10647,-3.1762 0.98716,-3.7638 1.0377,-0.55751 1.3648,-0.52231 3.7115,0.39948 2.1631,0.84965 3.3047,1.0109 7.1583,1.0109 4.1412,0 4.851,-0.11739 7.3368,-1.2133 2.7035,-1.192 2.7793,-1.2009 4.3046,-0.5064 1.5212,0.69266 1.5466,0.74476 1.2588,2.5776 -0.46912,2.9871 0.65856,5.968 3.056,8.0781 1.0968,0.9654 2.573,1.9479 3.2803,2.1833 1.5678,0.52188 1.759,1.568 0.23572,1.29 -0.57765,-0.10544 -2.1754,0.1206 -3.5505,0.50232 -5.7356,1.5921 -10.399,8.9177 -9.5301,14.971 0.23603,1.6443 0.16661,1.8303 -0.77372,2.0738 -1.4645,0.37921 -6.5338,0.66298 -7.6313,0.42718 z m 658.290001,-1.0799 c -1.561,-0.19982 -3.499,-0.68328 -4.3067,-1.0743 -1.3776,-0.66702 -1.4743,-0.85403 -1.5633,-3.0205 -0.19125,-4.6578 -4.2091,-10.144 -8.7295,-11.919 -1.7908,-0.70326 -1.9901,-0.91832 -1.9915,-2.1496 0,-1.3828 0.12082,-1.4862 2.3018,-1.9431 1.717,-0.35971 4.5409,-2.9362 5.1501,-4.6988 0.29491,-0.85331 0.41634,-2.5406 0.28351,-3.9396 -0.19802,-2.0851 -0.11383,-2.5076 0.56926,-2.8567 0.63772,-0.32588 0.99005,-0.181 1.7227,0.70832 2.2554,2.7378 7.496,4.6331 11.318,4.0928 3.0758,-0.43481 5.9898,-1.8026 7.7069,-3.6173 l 1.5518,-1.6402 1.5334,0.9049 c 1.5249,0.89992 1.5317,0.91736 1.2375,3.1662 -0.21815,1.6674 -0.10261,2.7445 0.43996,4.1012 0.80029,2.0009 3.114,4.2154 4.8353,4.6279 1.8822,0.45106 1.3148,1.4201 -0.83142,1.4201 -6.223,0 -12.327,7.301 -11.987,14.337 0.1237,2.5567 0.0432,2.9065 -0.72995,3.1715 -1.5794,0.54144 -5.6284,0.69804 -8.5102,0.32915 z m -495.24,-2.422 c -7.1052,-0.80691 -11.743,-2.9399 -16.784,-7.7194 -2.8578,-2.7096 -3.8907,-4.0504 -5.3042,-6.8854 -2.313,-4.6389 -2.9272,-7.2451 -2.8931,-12.276 0.053,-7.8201 2.6326,-13.843 8.2314,-19.218 5.9086,-5.6726 11.759,-7.8348 21.199,-7.8348 6.3144,0 9.446,0.63806 14.409,2.9359 4.7496,2.1989 9.7644,7.0995 12.139,11.863 2.3624,4.7385 2.9297,7.2386 2.8754,12.671 -0.0375,3.747 -0.25734,5.2066 -1.2013,7.9762 -2.1635,6.3475 -7.5056,12.559 -13.366,15.542 -4.826,2.4561 -12.845,3.6798 -19.306,2.9461 z m 9.0516,-8.1403 c 7.7293,-1.9213 13.385,-7.2696 15.216,-14.389 0.87864,-3.4159 0.88669,-5.3732 0.0352,-8.5372 -2.2574,-8.3875 -9.0796,-14.049 -18.107,-15.027 -7.4505,-0.80694 -16.334,3.8295 -19.736,10.301 -1.4276,2.7155 -2.5332,6.6054 -2.5332,8.9123 0,4.5276 2.5199,10.058 6.1588,13.517 5.1182,4.8647 12.373,6.8629 18.966,5.224 z m -9.0645,-7.6406 c -4.7441,-1.8298 -7.7036,-5.5694 -8.0798,-10.209 -0.6922,-8.5376 8.4713,-15.039 16.891,-11.984 3.0409,1.1033 5.3019,2.9427 6.8078,5.5384 1.1248,1.9388 1.2877,2.6415 1.2877,5.5551 0,2.9148 -0.16268,3.6159 -1.2898,5.5589 -2.2895,3.9466 -5.6954,5.9537 -10.5,6.1873 -2.2761,0.11069 -3.5827,-0.0543 -5.1172,-0.64618 z m -101.050005,14.55 c -2.961096,-0.74129 -7.271896,-2.5822 -9.075996,-3.8759 -0.8043,-0.57676 -0.74202,-0.76747 1.6791,-5.1412 1.3829,-2.4982 2.571,-4.5986 2.6403,-4.6674 0.0692,-0.0689 1.2676,0.6384 2.6629,1.5717 2.640091,1.7659 7.141891,3.35 9.509191,3.3459 5.58211,-0.01 9.45221,-4.1129 7.52901,-7.9829 -1.0324,-2.0774 -3.3196,-3.2804 -10.56801,-5.5583 -6.025495,-1.8936 -6.618591,-2.1751 -8.734491,-4.1462 -1.4661,-1.3658 -2.448,-2.7053 -2.7727,-3.7824 -2.5787,-8.5544 0.86678,-16.87 8.478291,-20.462 2.6852,-1.2672 3.8108,-1.5504 6.8921,-1.7339 4.22681,-0.2518 8.28991,0.30784 13.04001,1.7961 5.3319,1.6706 5.2197,1.398 2.6151,6.3541 -1.2278,2.3362 -2.4094,4.2477 -2.6258,4.2477 -0.2164,0 -1.6392,-0.56272 -3.1617,-1.2505 -5.0945,-2.3013 -10.69201,-1.4513 -12.34501,1.8746 -0.9286,1.8685 -0.60689,3.4868 0.97378,4.8983 1.5978,1.4268 3.105,2.097 7.72621,3.4354 7.1095,2.059 10.608,4.208 12.688,7.7932 1.2131,2.091 1.2862,2.4853 1.2628,6.8059 -0.0205,3.7913 -0.20262,5.0181 -1.0506,7.0774 -1.895,4.6022 -6.3901,8.1179 -12.3,9.6198 -3.3958,0.86302 -11.19301,0.74951 -15.063005,-0.2193 z m 163.800005,0.0678 c -9.5074,-2.7024 -17.548,-10.435 -19.633,-18.882 -0.8449,-3.4226 -0.8449,-10.25 0,-13.673 0.89559,-3.6278 3.4043,-8.0342 6.2383,-10.957 6.666,-6.875 16.278,-10.075 25.621,-8.5304 2.1614,0.35743 4.7158,0.91038 5.6764,1.2288 l 1.7466,0.57893 0.11974,6.9471 0.11975,6.9471 -1.9533,-1.4237 c -2.6974,-1.966 -5.9346,-2.9499 -9.639,-2.9297 -9.479,0.0518 -15.971,6.7868 -15.413,15.991 0.54764,9.0332 8.2126,14.904 17.901,13.711 2.6073,-0.32104 6.4288,-1.9152 8.0998,-3.3789 l 0.98245,-0.86056 0,6.9354 0,6.9354 -2.9474,0.90934 c -4.1441,1.2786 -13.164,1.5193 -16.92,0.4516 z m -118.11,-20.725 0,-20.232 -1.12,-0.40662 c -0.61602,-0.22364 -3.1704,-0.40662 -5.6764,-0.40662 l -4.5564,0 0,-4.7948 0,-4.7948 17.903,0 17.903,0 0,4.7608 0,4.7608 -5.423,0.13824 c -2.9826,0.076 -5.5861,0.29446 -5.7856,0.4854 -0.19944,0.19094 -0.41719,9.4313 -0.48389,20.534 l -0.12127,20.187 -6.3193,0 -6.3193,0 0,-20.232 z m 148.9,-5.2014 0,-25.433 6.3314,0 6.3314,0 0,10.354 c 0,5.6947 0.12408,10.472 0.27573,10.617 0.64689,0.61768 2.1769,-1.0276 9.9764,-10.728 l 8.2354,-10.243 7.5672,0 c 4.162,0 7.5672,0.10362 7.5672,0.23026 0,0.12665 -4.5193,5.3702 -10.043,11.652 -5.5236,6.2822 -10.039,11.76 -10.035,12.174 0.004,0.41329 5.0198,6.5677 11.145,13.676 l 11.137,12.925 -7.9226,0.11383 c -5.1465,0.0739 -8.1194,-0.0421 -8.4843,-0.33124 -0.3089,-0.24479 -4.4465,-5.2211 -9.1947,-11.058 -5.6745,-6.9762 -8.9058,-10.613 -9.4289,-10.613 -0.75005,0 -0.79587,0.63622 -0.79587,11.049 l 0,11.049 -6.3314,0 -6.3314,0 0,-25.433 z m 80.343,0 0,-25.433 14.846,0 14.846,0 0,4.769 0,4.769 -8.0946,0.13002 c -6.6156,0.10626 -8.1702,0.24429 -8.5079,0.75542 -0.22731,0.34397 -0.4163,2.5419 -0.41998,4.8843 -0.006,3.7877 0.0868,4.3067 0.8379,4.6905 0.4847,0.24769 3.9268,0.43161 8.078,0.43161 l 7.2334,0 0,4.7948 0,4.7948 -7.2334,0 c -4.1511,0 -7.5933,0.18392 -8.078,0.4316 -0.75504,0.38585 -0.84388,0.90524 -0.8379,4.899 0.003,2.4571 0.19267,4.7488 0.41998,5.0928 0.33778,0.51113 1.8924,0.64916 8.5079,0.75542 l 8.0946,0.13002 0,4.769 0,4.769 -14.846,0 -14.846,0 0,-25.433 z m 40.608,0 0,-25.433 6.0972,0 6.0972,0 0.12507,20.187 c 0.0688,11.103 0.2884,20.343 0.48804,20.534 0.19963,0.19091 4.0803,0.40864 8.6238,0.48383 l 8.2608,0.13672 0,4.7623 0,4.7623 -14.846,0 -14.846,0 0,-25.433 z m 38.425,0 0,-25.433 14.846,0 14.846,0 0,4.769 0,4.769 -8.0426,0.13002 c -4.4235,0.0715 -8.206,0.28592 -8.4055,0.47647 -0.19954,0.19055 -0.42891,2.2717 -0.50974,4.6247 -0.20291,5.9091 -0.58427,5.6607 8.6927,5.6607 l 7.3918,0 0,4.7948 0,4.7948 -7.3918,0 c -9.3086,0 -8.8918,-0.28136 -8.6918,5.8684 0.0803,2.4682 0.30924,4.6436 0.50878,4.8341 0.19951,0.1905 3.982,0.40488 8.4055,0.47639 l 8.0426,0.13002 0,4.769 0,4.769 -14.846,0 -14.846,0 0,-25.433 z m 57.278,24.717 c -0.64724,-1.188 -21.91,-49.625 -21.91,-49.912 0,-0.14255 3.0719,-0.20751 6.8265,-0.14436 l 6.8265,0.11482 6.4096,15.426 c 6.2834,15.122 7.0448,16.53 8.1843,15.132 0.24173,-0.29648 3.2693,-7.338 6.7279,-15.648 l 6.2884,-15.109 6.8561,-0.005 6.8561,-0.005 -1.6914,3.8567 c -0.93023,2.1212 -6.0112,13.519 -11.291,25.329 l -9.5995,21.472 -5.0396,0.11728 c -4.4653,0.10391 -5.0856,0.0326 -5.4441,-0.6254 z m 40.967,-24.717 0,-25.433 14.846,0 14.846,0 0,4.7948 0,4.7948 -7.3946,0 c -4.067,0 -7.8986,0.18298 -8.5146,0.40662 -1.1085,0.40243 -1.12,0.45378 -1.12,4.9886 0,4.1033 0.0882,4.627 0.8446,5.0136 0.48468,0.24769 3.9268,0.43161 8.078,0.43161 l 7.2334,0 0,4.7948 0,4.7948 -7.2334,0 c -4.1512,0 -7.5933,0.18392 -8.078,0.4316 -0.75981,0.38827 -0.8446,0.9126 -0.8446,5.222 0,4.7586 0.007,4.7931 1.12,5.197 0.61602,0.22364 4.4476,0.40662 8.5146,0.40662 l 7.3946,0 0,4.7948 0,4.7948 -14.846,0 -14.846,0 0,-25.433 z m 40.172,0 0,-25.433 6.6589,0.005 6.6589,0.005 12.881,15.734 c 7.0846,8.6539 13.176,15.734 13.536,15.734 0.5686,0 0.67003,-2.0753 0.76937,-15.739 l 0.11445,-15.739 6.3261,0 6.3261,0 0,25.433 0,25.433 -6.4878,0 -6.4878,0 -12.179,-14.905 c -13.97,-17.097 -13.93,-17.053 -14.817,-16.35 -0.53663,0.42527 -0.63658,2.9187 -0.63658,15.88 l 0,15.376 -6.3314,0 -6.3314,0 0,-25.433 z m -576.270001,10.395 c -3.3862,-0.98476 -5.7375,-5.0387 -4.9228,-8.4874 1.0856,-4.5951 6.4844,-6.9896 10.905,-4.8365 2.4472,1.1921 3.6508,3.0241 3.8677,5.8866 0.31485,4.1562 -2.3072,7.2354 -6.5207,7.6576 -1.0518,0.1054 -2.5498,0.006 -3.3287,-0.22026 z m 44.279,-0.9005 c -5.1683,-1.3041 -6.9842,-7.7685 -3.3061,-11.769 3.3732,-3.6684 10.166,-2.7972 12.343,1.583 0.82528,1.6606 0.94259,4.912 0.22521,6.242 -1.7712,3.2838 -5.5315,4.8849 -9.2619,3.9436 z m 657.840001,-1.57 c -3.9705,-2.3116 -4.0879,-7.4486 -0.22623,-9.897 0.89963,-0.57037 0.95408,-0.52598 1.2275,1.0007 0.15737,0.87867 0.47848,2.3257 0.71362,3.2155 l 0.42752,1.6179 2.8587,-0.27966 c 1.5723,-0.15382 3.0806,-0.31902 3.3518,-0.36713 0.71208,-0.1263 0.36499,1.804 -0.54651,3.0396 -0.97267,1.3184 -3.3723,2.5006 -5.0734,2.4994 -0.72047,-4.2e-4 -1.9503,-0.37374 -2.733,-0.82942 z m -40.27,-0.46381 c -1.875,-0.37827 -4.3734,-2.853 -4.3734,-4.332 0,-1.0093 0.0776,-1.0406 1.8558,-0.74728 1.0207,0.16836 2.5435,0.31129 3.384,0.31763 l 1.5283,0.0115 0.59092,-2.9186 c 0.32504,-1.6052 0.66274,-2.9909 0.75051,-3.0793 0.0878,-0.0884 0.65287,0.1479 1.2558,0.5251 2.8146,1.761 3.2422,6.3435 0.80863,8.6672 -1.4953,1.4278 -3.6157,1.9965 -5.8004,1.5557 z m 17.83,-7.673 c -4.0732,-1.2475 -6.0256,-5.2013 -3.8642,-7.8251 2.9449,-3.5749 11.149,-3.8022 14.704,-0.40739 3.6562,3.4911 0.1502,8.2713 -6.3777,8.6957 -1.4188,0.0922 -3.279,-0.1009 -4.4621,-0.46322 z m 7.2702,-0.81303 c 1.2983,-0.78171 2.9596,-4.1951 2.5948,-5.3313 -0.45163,-1.4066 -1.0687,-1.9819 -2.1258,-1.9819 -1.4583,0 -1.9988,0.81182 -1.9988,3.0019 l 0,2.0013 -1.5025,0 c -1.7154,0 -2.0787,-0.38461 -2.2024,-2.3317 -0.23483,-3.6934 -4.1547,-3.5121 -4.1547,0.19218 0,1.2518 0.32517,1.8565 1.6748,3.115 2.4877,2.3195 5.2773,2.802 7.7146,1.3344 z m -668.170001,-1.901 c -3.5045,-1.0954 -7.4155,-4.4351 -8.8961,-7.5968 -1.4474,-3.0907 -1.4474,-7.9668 0,-11.058 1.5835,-3.3813 5.3985,-6.5273 9.2807,-7.6533 7.1466,-2.0727 14.546,0.71078 18.079,6.8014 1.1795,2.0331 1.2829,2.5472 1.2829,6.3806 0,3.8334 -0.10338,4.3475 -1.2829,6.3806 -3.5525,6.1232 -11.345,8.9699 -18.464,6.7449 z m 8.5031,-1.7103 c 5.7931,-2.6778 5.8432,-10.498 0.0852,-13.303 -2.9633,-1.4435 -6.4668,-0.9749 -8.8572,1.1847 -1.7644,1.5941 -2.4717,3.094 -2.4717,5.2416 0,3.3996 1.4377,5.5862 4.5848,6.9731 2.3014,1.0142 4.3195,0.98502 6.659,-0.0964 z m -5.2327,-4.1296 c -0.4163,-0.24194 -1.2822,-0.3854 -1.9243,-0.3188 -0.95211,0.0988 -1.2285,-0.0912 -1.499,-1.03 -0.18239,-0.6331 -0.1458,-1.7937 0.0813,-2.5791 0.42965,-1.4858 2.5998,-3.5663 3.7201,-3.5663 0.41646,0 0.22602,0.3448 -0.53627,0.97089 -0.95115,0.78121 -1.1242,1.1913 -0.8856,2.0989 0.39132,1.4888 2.0676,2.2362 3.5595,1.5871 0.60713,-0.26414 1.2178,-0.76373 1.357,-1.1102 0.42748,-1.0637 -0.25174,-2.7289 -1.2732,-3.1213 -0.78349,-0.30103 -0.8187,-0.37753 -0.18358,-0.39889 2.1825,-0.0734 4.6802,2.412 4.6663,4.6434 -0.0128,2.067 -0.43829,2.685 -1.8804,2.7313 -0.76367,0.0246 -2.0762,0.15448 -2.9168,0.28874 -0.84055,0.13426 -1.8689,0.0461 -2.2852,-0.1958 z m -5.647,-8.993 c 1.3894,-0.92922 1.1596,-3.039 -0.42287,-3.883 -1.0303,-0.54954 -1.2697,-0.53901 -2.2924,0.10084 -1.4753,0.92304 -1.5631,2.8679 -0.17148,3.7986 1.2191,0.81534 1.6468,0.81291 2.8868,-0.0164 z m 15.867,-0.4415 c 0.99304,-0.85812 1.0239,-2.1335 0.0759,-3.1338 -1.4154,-1.4934 -4.5171,-0.49212 -4.5171,1.4582 0,2.04 2.7979,3.0956 4.4413,1.6756 z m 660.440001,8.3862 c -1.2736,-1.6714 -4.9414,-3.2068 -8.1959,-3.4308 -3.7584,-0.25868 -7.0653,0.66082 -9.4829,2.6368 l -1.851,1.5128 -0.90132,-1.9456 c -0.49573,-1.0701 -1.0048,-3.0104 -1.1312,-4.3117 -0.21863,-2.2497 -0.19535,-2.3215 0.47294,-1.4599 1.1141,1.4364 3.3706,1.9691 5.2184,1.2319 1.5382,-0.61368 2.9062,-2.4464 2.903,-3.8893 -0.006,-2.5046 -3.4421,-4.7672 -5.8908,-3.8782 -0.66829,0.24261 -1.3099,0.35053 -1.4259,0.23982 -0.11593,-0.11072 0.30409,-1.0403 0.93342,-2.0657 4.5221,-7.368 15.329,-7.585 20.308,-0.40785 1.7578,2.5339 1.789,3.2088 0.11148,2.4097 -1.7091,-0.81413 -3.7635,-0.34552 -5.0914,1.1613 -1.4941,1.6955 -1.4417,3.6872 0.14152,5.3792 1.7216,1.8398 4.2836,1.9155 6.178,0.1824 l 1.3303,-1.217 0,1.4616 c 0,1.9286 -1.1247,5.48 -2.0781,6.5622 l -0.76011,0.86274 -0.78815,-1.0344 z m -31.607,-4.7816 c -1.3111,-0.50426 -2.4519,-2.2714 -2.1169,-3.2792 0.75304,-2.2655 5.0703,-4.6386 8.4388,-4.6386 1.4189,0 1.4813,0.0604 1.1844,1.1466 -0.17239,0.63062 -0.38006,2.3603 -0.46153,3.8437 -0.1169,2.1276 -0.31426,2.7597 -0.93474,2.9935 -1.1047,0.41625 -4.9647,0.37458 -6.11,-0.066 z m 38.836,0.14803 c -0.88937,-0.18288 -0.9829,-0.44618 -0.98726,-2.7789 -0.004,-1.4173 -0.12833,-3.2906 -0.27928,-4.1629 -0.27208,-1.572 -0.26326,-1.5838 0.98726,-1.3261 2.9006,0.59757 5.0119,1.5933 6.2628,2.9538 1.6986,1.8473 1.781,3.6181 0.21387,4.5986 -1.1311,0.70767 -4.4002,1.0851 -6.1974,0.71556 z m -25.872,-2.7856 c -2.0018,-0.97171 -1.8379,-3.7383 0.26483,-4.4713 1.1623,-0.40518 2.8119,0.36931 3.255,1.5282 0.74531,1.9493 -1.5733,3.888 -3.5198,2.9431 z m 2.9362,-1.8285 c 0.41124,-1.0232 -1.4719,-2.3089 -2.5642,-1.7507 -1.3516,0.6907 -1.5085,1.6729 -0.40372,2.5272 1.0863,0.83993 2.4631,0.47972 2.9679,-0.77651 z m 13.033,1.3132 c -0.72615,-0.6934 -0.89351,-2.1404 -0.34308,-2.9669 0.53249,-0.79969 2.413,-1.304 3.4645,-0.92902 1.1867,0.42315 1.7114,2.1749 1.0603,3.5395 -0.37521,0.78629 -0.81824,1.0116 -1.9892,1.0116 -0.82854,0 -1.8152,-0.29483 -2.1926,-0.65519 z m 2.8357,-0.19336 c 1.1148,-0.56971 1.0975,-2.3284 -0.0287,-2.9039 -1.9468,-0.99483 -3.7608,1.8256 -1.8558,2.8852 0.9587,0.53319 0.87927,0.5324 1.8844,0.0187 z m -687.720001,-6.124 c -3.855,-4.466 -0.897,-10.538 5.135,-10.538 0.96874,0 2.3145,0.20012 2.9905,0.44471 1.2692,0.45917 3.1941,1.97 3.1941,2.5069 0,0.16755 -0.84185,0.77572 -1.8708,1.3515 -2.1529,1.2047 -5.5663,4.5475 -6.6084,6.4717 -0.39209,0.724 -0.89003,1.3164 -1.1065,1.3164 -0.2165,0 -0.99677,-0.69867 -1.7339,-1.5526 z m 33.82,-0.694 c -1.943,-2.796 -3.909,-4.494 -6.847,-5.915 l -2.2174,-1.0729 1.2302,-1.2261 c 3.0805,-3.0702 9.0695,-2.3089 11.511,1.4633 1.6056,2.4807 1.0447,6.357 -1.2006,8.2973 -0.8583,0.74169 -0.90654,0.71156 -2.4761,-1.5463 z m 625.500001,-0.801 c -2.2861,-0.69557 -5.5091,-3.8912 -6.1148,-6.0629 -0.27832,-0.99774 -0.42883,-1.8878 -0.33443,-1.978 0.0944,-0.0901 1.0522,0.64177 2.1285,1.6265 2.1546,1.9713 4.9282,3.3669 8.3557,4.2045 2.4761,0.60508 2.8896,1.0744 1.8343,2.082 -0.81216,0.77552 -3.545,0.83506 -5.8692,0.12787 z m 32.268,-0.34097 c -0.53354,-0.95192 0,-1.595 1.3397,-1.6087 1.3919,-0.0143 6.1264,-2.5205 7.8244,-4.1418 1.4978,-1.4301 1.7818,-1.5663 1.7818,-0.85407 0,1.2285 -1.1999,3.7808 -2.3132,4.9205 -2.4374,2.4951 -7.6123,3.5046 -8.6327,1.6841 z"
       id="path3371-6"
       style="fill:#ffffff" />
  </g>
</svg>
